<?xml version="1.0"?>
<svg xmlns="http://www.w3.org/2000/svg" version="1.2" baseProfile="tiny-ps" width="512" height="512" viewBox="0 0 512 512">
  <title>RESEY BIMI logo</title>
  <desc>Clean single-color vector logo prepared for BIMI testing.</desc>
  <g fill="#6e0f11" fill-rule="evenodd">
    <path d="M352.90,408.38 L352.90,410.48 L354.31,411.89 L355.01,414.70 L356.41,415.40 L356.41,417.50 L358.52,418.91 L359.22,421.02 L361.33,423.12 L361.33,425.23 L363.44,428.74 L365.54,430.14 L366.95,434.36 L368.35,435.06 L368.35,437.17 L371.86,440.68 L371.86,442.78 L373.97,444.19 L375.37,448.40 L377.48,449.81 L377.48,476.49 L378.88,478.60 L399.95,478.60 L400.65,477.89 L404.16,477.89 L404.16,451.91 L404.87,449.10 L407.67,447.00 L411.18,441.38 L412.59,437.17 L413.99,436.46 L413.99,435.06 L415.40,434.36 L418.21,430.14 L418.91,426.63 L420.31,425.93 L420.31,424.53 L422.42,423.12 L423.82,418.91 L427.34,415.40 L428.74,411.18 L430.14,410.48 L430.14,409.08 L429.44,408.38 L404.87,408.38 L402.06,409.78 L400.65,413.29 L399.25,413.99 L397.84,416.80 L397.14,421.02 L394.33,423.82 L394.33,425.93 L392.93,426.63 L392.23,428.74 L390.82,428.74 L388.01,425.93 L387.31,421.72 L384.50,417.50 L384.50,415.40 L383.10,414.70 L381.69,409.08 L379.59,408.38 Z"></path>
    <path d="M284.79,409.08 L284.79,476.49 L289.00,478.60 L292.51,477.89 L294.62,478.60 L343.77,478.60 L346.58,476.49 L346.58,461.04 L312.88,461.04 L311.47,459.64 L311.47,453.32 L312.18,452.61 L338.86,452.61 L340.97,451.21 L340.97,437.17 L339.56,435.06 L312.18,435.06 L311.47,434.36 L311.47,426.63 L312.18,425.93 L346.58,425.93 L346.58,409.78 L345.18,408.38 L287.60,408.38 Z"></path>
    <path d="M157.69,408.38 L156.29,409.78 L156.29,477.19 L160.50,478.60 L166.82,478.60 L167.52,477.89 L171.03,478.60 L202.63,478.60 L203.34,477.89 L215.97,478.60 L218.08,477.19 L218.08,461.04 L183.67,461.04 L182.27,454.02 L183.67,452.61 L212.46,452.61 L212.46,437.87 L211.76,435.06 L183.67,435.06 L182.97,434.36 L182.97,427.34 L185.78,425.93 L205.44,425.93 L206.14,426.63 L218.08,425.93 L218.08,409.78 L216.68,408.38 Z"></path>
    <path d="M81.15,408.38 L81.15,477.89 L83.96,478.60 L90.98,478.60 L91.69,477.89 L100.82,478.60 L106.43,477.19 L107.13,475.79 L107.13,449.10 L106.43,448.40 L107.13,426.63 L107.84,425.93 L115.56,425.23 L116.26,425.93 L119.77,425.93 L125.39,429.44 L125.39,433.66 L121.18,438.57 L110.65,440.68 L110.65,442.78 L112.05,444.19 L112.05,447.00 L114.16,450.51 L114.16,454.02 L116.26,457.53 L116.97,463.15 L119.77,468.76 L119.77,472.28 L121.18,476.49 L123.29,478.60 L126.09,477.89 L128.20,478.60 L133.82,478.60 L134.52,477.89 L148.56,478.60 L149.27,475.08 L144.35,463.15 L142.95,462.45 L142.95,460.34 L141.54,458.93 L141.54,456.83 L138.73,450.51 L138.73,448.40 L142.95,446.29 L145.05,444.19 L145.05,442.78 L147.86,441.38 L147.86,439.27 L149.27,438.57 L149.97,434.36 L151.37,432.95 L151.37,424.53 L147.86,418.91 L147.16,415.40 L144.35,414.70 L143.65,412.59 L141.54,411.18 L139.44,411.18 L138.73,409.78 L133.82,408.38 Z"></path>
    <path d="M246.87,406.27 L241.25,407.67 L239.85,409.08 L237.74,409.08 L234.93,410.48 L233.53,412.59 L232.13,412.59 L227.91,416.80 L225.81,421.02 L225.81,426.63 L226.51,427.34 L226.51,431.55 L229.32,434.36 L230.02,437.17 L232.83,439.27 L232.83,440.68 L234.23,442.08 L235.64,442.08 L238.45,444.89 L238.45,446.29 L241.96,447.70 L244.76,451.21 L248.98,452.61 L248.98,454.02 L251.08,456.83 L251.08,458.93 L249.68,460.34 L246.87,461.04 L238.45,461.04 L237.74,460.34 L232.13,460.34 L230.02,458.93 L225.81,458.93 L226.51,472.98 L227.21,476.49 L231.42,477.89 L236.34,477.89 L239.15,479.30 L259.51,479.30 L265.13,477.89 L266.53,476.49 L270.75,475.08 L274.96,470.87 L275.66,468.06 L277.77,465.25 L277.77,456.83 L274.96,449.10 L270.04,444.19 L266.53,442.78 L263.72,439.27 L259.51,437.87 L258.81,435.76 L253.19,431.55 L253.19,428.04 L256.00,425.93 L270.04,425.93 L273.55,428.04 L277.07,428.04 L274.96,409.08 L274.26,408.38 L260.21,406.97 L259.51,406.27 Z"></path>
    <path d="M83.26,33.40 L82.56,34.81 L82.56,371.86 L83.26,375.37 L85.37,376.78 L186.48,376.78 L189.29,376.08 L189.99,373.97 L191.40,373.27 L190.70,370.46 L190.70,331.13 L191.40,330.43 L192.10,303.05 L193.50,298.83 L193.50,292.51 L194.21,291.81 L194.91,281.98 L196.31,277.07 L196.31,270.75 L197.72,269.34 L197.72,266.53 L201.23,252.49 L204.74,243.36 L204.74,240.55 L206.14,237.74 L207.55,237.04 L208.25,232.83 L210.36,231.42 L210.36,229.32 L213.87,225.81 L214.57,222.29 L217.38,220.89 L225.81,213.17 L230.72,212.46 L234.93,208.95 L234.93,206.85 L232.83,204.04 L229.32,201.93 L227.21,201.93 L226.51,200.53 L218.08,195.61 L215.27,194.91 L213.87,192.80 L211.76,192.80 L211.06,190.70 L197.72,179.46 L196.31,176.65 L187.89,168.23 L187.18,165.42 L180.87,156.29 L179.46,151.37 L178.06,150.67 L178.06,147.86 L175.95,143.65 L175.95,137.33 L175.25,136.63 L175.95,123.29 L178.76,119.77 L181.57,119.07 L189.99,119.77 L192.10,119.07 L192.80,119.77 L214.57,119.77 L215.27,120.48 L220.89,119.77 L221.59,120.48 L226.51,120.48 L227.21,121.18 L226.51,128.90 L229.32,131.71 L229.32,133.12 L232.83,135.22 L237.74,135.22 L239.85,133.82 L241.96,133.82 L243.36,132.41 L243.36,130.31 L245.47,128.20 L244.76,126.09 L244.76,121.88 L245.47,121.18 L259.51,122.58 L260.92,123.99 L263.72,123.99 L267.24,126.09 L274.26,128.20 L282.68,133.12 L286.90,134.52 L288.30,136.63 L299.54,145.05 L303.05,149.97 L305.15,150.67 L305.86,153.48 L308.66,157.69 L310.07,158.39 L310.07,159.80 L314.98,169.63 L318.50,182.97 L319.20,195.61 L319.90,196.31 L319.20,211.06 L317.79,213.17 L316.39,222.29 L313.58,226.51 L312.18,230.02 L312.18,232.83 L310.77,233.53 L309.37,237.74 L307.96,238.45 L307.96,241.25 L305.15,243.36 L305.15,245.47 L300.94,248.98 L298.13,252.49 L298.13,253.89 L295.32,256.00 L293.22,260.92 L291.11,262.32 L290.41,265.83 L287.60,270.04 L285.49,278.47 L285.49,296.73 L287.60,303.05 L287.60,307.96 L289.00,308.66 L289.00,313.58 L290.41,316.39 L290.41,318.50 L291.81,319.90 L292.51,324.82 L293.92,325.52 L294.62,330.43 L296.73,333.24 L297.43,336.75 L298.83,337.45 L298.83,340.26 L303.05,348.69 L304.45,349.39 L305.15,352.90 L311.47,364.14 L314.28,366.95 L314.98,369.76 L316.39,370.46 L316.39,371.86 L319.20,376.78 L424.53,376.78 L425.93,375.37 L426.63,370.46 L423.82,367.65 L423.82,366.24 L421.72,364.14 L421.72,362.03 L419.61,360.63 L418.91,357.82 L417.50,357.12 L416.80,353.61 L412.59,347.99 L403.46,332.54 L400.65,330.43 L399.95,326.92 L397.14,324.11 L397.14,322.71 L393.63,317.09 L391.52,315.69 L390.12,311.47 L388.01,307.96 L386.61,307.26 L385.91,303.75 L383.10,299.54 L383.10,295.32 L382.39,294.62 L383.10,280.58 L385.20,279.17 L386.61,276.36 L392.23,270.75 L392.23,269.34 L394.33,268.64 L394.33,267.24 L396.44,266.53 L403.46,259.51 L413.29,245.47 L413.29,243.36 L415.40,241.25 L416.80,238.45 L416.80,236.34 L418.21,235.64 L418.91,231.42 L420.31,230.02 L423.82,218.78 L423.82,214.57 L425.23,212.46 L425.93,201.93 L426.63,201.23 L426.63,185.08 L425.93,184.38 L425.23,173.84 L423.82,171.74 L423.12,162.61 L421.72,161.20 L421.72,156.99 L419.61,153.48 L419.61,150.67 L418.21,149.27 L416.80,142.24 L413.99,138.03 L413.99,135.92 L411.89,133.12 L411.89,131.01 L408.38,123.99 L406.97,123.29 L404.87,117.67 L402.76,116.26 L401.35,114.16 L401.35,112.05 L399.25,110.65 L397.84,107.13 L394.33,103.62 L393.63,100.82 L389.42,97.30 L389.42,95.90 L387.31,93.09 L371.16,76.94 L369.76,76.94 L363.44,70.62 L360.63,69.92 L359.92,67.81 L357.12,67.11 L352.90,62.90 L345.18,57.98 L339.56,55.87 L338.86,54.47 L332.54,50.96 L329.73,50.96 L329.03,49.55 L327.62,49.55 L326.22,48.15 L324.11,48.15 L323.41,46.75 L319.20,46.04 L318.50,44.64 L316.39,44.64 L314.98,43.24 L311.47,43.24 L308.66,41.13 L305.86,41.13 L305.15,39.72 L301.64,39.72 L295.32,36.92 L289.71,35.51 L284.79,35.51 L282.68,34.11 L279.17,33.40 L272.15,33.40 L269.34,32.00 L88.18,32.00 Z"></path>
  </g>
</svg>